<svg width="120" height="120" xmlns="http://www.w3.org/2000/svg">
  <title>gRPC Spring Boot</title>
  <g id="group-background">
    <path id="background"
          d="M60,60 m-60,-60 l120,0 l0,120 l-120,0 l0,-120 z"
          fill="#3f3f3f"
    />
  </g>
  <g id="group-hive"
     fill="#fefefe" stroke="#3f3f3f" stroke-width="2"
     stroke-linecap="square" stroke-miterlimit="100"
  >
    <path id="hive-top"
          d="M60,60 m-10,-51 l20,0 l10,17 l-10,17 l-20,0 l-10,-17 l10,-17"
    />
    <path id="hive-right-top"
          d="M60,60 m20,-34 l20,0 l10,17 l-10,17 l-20,0 l-10,-17 l10,-17"
    />
    <path id="hive-right-bottom"
          d="M60,60 m20,0 l20,0 l10,17 l-10,17 l-20,0 l-10,-17 l10,-17"
    />
    <path id="hive-bottom"
          d="M60,60 m-10,17 l20,0 l10,17 l-10,17 l-20,0 l-10,-17 l10,-17"
    />
    <path id="hive-left-bottom"
          d="M60,60 m-40,0 l20,0 l10,17 l-10,17 l-20,0 l-10,-17 l10,-17"
    />
    <path id="hive-left-top"
          d="M60,60 m-40,-34 l20,0 l10,17 l-10,17 l-20,0 l-10,-17 l10,-17"
    />
  </g>
  <g id="group-color"
     fill="#fefefe" stroke="#3f3f3f" stroke-width="2"
     stroke-linecap="square" stroke-miterlimit="100"
  >
    <path id="color-top"
          d="M60,60 m-10,-51 l20,0 l10,17 l-10,17 l-20,0 l-10,-17 l10,-17"
          fill="#6aad3d" fill-opacity="0.382"
    />
    <path id="color-right-top"
          d="M60,60 m20,-34 l20,0 l10,17 l-10,17 l-20,0 l-10,-17 l10,-17"
          fill="#6aad3d" fill-opacity="0.382"
    />
    <path id="color-right-bottom"
          d="M60,60 m20,0 l20,0 l10,17 l-10,17 l-20,0 l-10,-17 l10,-17"
          fill="#6aad3d" fill-opacity="0.382"
    />
    <path id="color-bottom"
          d="M60,60 m-10,17 l20,0 l10,17 l-10,17 l-20,0 l-10,-17 l10,-17"
          fill="#6aad3d" fill-opacity="0.382"
    />
    <path id="color-left-bottom"
          d="M60,60 m-40,0 l20,0 l10,17 l-10,17 l-20,0 l-10,-17 l10,-17"
          fill="#6aad3d" fill-opacity="0.382"
    />
    <path id="color-left-top"
          d="M60,60 m-40,-34 l20,0 l10,17 l-10,17 l-20,0 l-10,-17 l10,-17"
          fill="#6aad3d" fill-opacity="0.382"
    />
  </g>
  <g id="group-title">
    <path id="text-background"
          d="M60,60 m-10,-17 l20,0 l10,17 l-10,17 l-20,0 l-10,-17 l10,-17"
          stroke-width="2" stroke-linecap="square" stroke-miterlimit="100"
          fill="#5cafb5" stroke="#5cafb5" filter="url(#light-shadow)"
    />
    <text id="text-grpc" x="60" y="63" text-anchor="middle"
          font-family="Inter,Arial,sans-serif" font-size="10" font-weight="bold"
          fill="#345f60"
    >
      gRPC
    </text>
  </g>
  <defs>
    <filter id="light-shadow">
      <feColorMatrix result="colorOut" in="SourceGraphic"
                     values="0.36078 0 0 0 0
                             0 0.68627 0 0 0
                             0 0 0.7098 0 0
                             0 0 0 1 0"
      />
      <feGaussianBlur result="blurOut" in="colorOut" stdDeviation="3"/>
      <feBlend in="SourceGraphic" in2="blurOut" mode="normal"/>
    </filter>
  </defs>
</svg>